<?xml version="1.0" encoding="UTF-8"?>
<svg id="Layer_2" data-name="Layer 2" xmlns="http://www.w3.org/2000/svg" viewBox="0 0 77.84 77.84">
  <defs>
    <style>
      .cls-1 {
        fill: #5fa6c8;
      }

      .cls-1, .cls-2 {
        stroke-width: 0px;
      }

      .cls-2 {
        fill: #fff;
      }

      .cls-3 {
        fill: none;
        stroke: #fff;
        stroke-miterlimit: 10;
        stroke-width: 2.77px;
      }
    </style>
  </defs>
  <g id="Layer_1-2" data-name="Layer 1">
    <g id="portfolio-icon">
      <circle class="cls-1" cx="38.92" cy="38.92" r="38.92"/>
      <g>
        <path class="cls-2" d="M14.04,35.06c-2.16-9.88,2.92-14.1,15.42-13.25h19.52c12.48-1.14,17.08,3.51,14.7,13.25H14.04Z"/>
        <path class="cls-2" d="M13.55,40.36v11.57c1.35,3.16,3.4,4.78,6.27,4.58h37.35c3.42.06,6.19-1.01,7.11-5.3v-10.84s-17.71,0-17.71,0c-1.69,6.51-12.29,6.51-13.98,0H13.55Z"/>
        <polyline class="cls-3" points="29.46 22.26 29.46 16.74 47.3 16.74 47.3 22.08"/>
        <path class="cls-2" d="M35.95,40.36c1.07,3.18,4.91,3.86,6.73,0h-6.73Z"/>
      </g>
    </g>
  </g>
</svg>